font.ufo
<glyph name="dollar" format="2">
  <advance width="652"/>
  <unicode hex="0024"/>
  <outline>
    <contour>
      <point x="325" y="0" type="curve" smooth="yes"/>
      <point x="490" y="0"/>
      <point x="594" y="83"/>
      <point x="594" y="207" type="curve" smooth="yes"/>
      <point x="594" y="327"/>
      <point x="500" y="399"/>
      <point x="358" y="412" type="curve" smooth="yes"/>
      <point x="292" y="418" type="line" smooth="yes"/>
      <point x="206" y="426"/>
      <point x="166" y="472"/>
      <point x="166" y="530" type="curve" smooth="yes"/>
      <point x="166" y="596"/>
      <point x="223" y="648"/>
      <point x="321" y="648" type="curve" smooth="yes"/>
      <point x="430" y="648"/>
      <point x="475" y="576"/>
      <point x="475" y="505" type="curve"/>
      <point x="565" y="505" type="line"/>
      <point x="565" y="647"/>
      <point x="470" y="730"/>
      <point x="321" y="730" type="curve" smooth="yes"/>
      <point x="172" y="730"/>
      <point x="74" y="655"/>
      <point x="74" y="530" type="curve" smooth="yes"/>
      <point x="74" y="408"/>
      <point x="156" y="344"/>
      <point x="284" y="332" type="curve" smooth="yes"/>
      <point x="350" y="326" type="line" smooth="yes"/>
      <point x="448" y="317"/>
      <point x="502" y="271"/>
      <point x="502" y="207" type="curve" smooth="yes"/>
      <point x="502" y="141"/>
      <point x="445" y="82"/>
      <point x="325" y="82" type="curve" smooth="yes"/>
      <point x="189" y="82"/>
      <point x="146" y="165"/>
      <point x="146" y="233" type="curve"/>
      <point x="56" y="233" type="line"/>
      <point x="56" y="91"/>
      <point x="153" y="0"/>
    </contour>
    <contour>
      <point x="282" y="-129" type="line"/>
      <point x="368" y="-129" type="line"/>
      <point x="368" y="17" type="line"/>
      <point x="282" y="17" type="line"/>
    </contour>
    <contour>
      <point x="278" y="681" type="line"/>
      <point x="364" y="681" type="line"/>
      <point x="364" y="827" type="line"/>
      <point x="278" y="827" type="line"/>
    </contour>
  </outline>
</glyph>
<glyph name="ampersand" format="2">
  <advance width="688"/>
  <unicode hex="0026"/>
  <outline>
    <contour>
      <point x="537" y="0" type="line"/>
      <point x="650" y="0" type="line"/>
      <point x="295" y="377" type="line" smooth="yes"/>
      <point x="236" y="440"/>
      <point x="210" y="483"/>
      <point x="210" y="542" type="curve" smooth="yes"/>
      <point x="210" y="615"/>
      <point x="243" y="654"/>
      <point x="338" y="654" type="curve" smooth="yes"/>
      <point x="377" y="654"/>
      <point x="463" y="648"/>
      <point x="504" y="644" type="curve"/>
      <point x="504" y="728" type="line"/>
      <point x="461" y="733"/>
      <point x="401" y="738"/>
      <point x="357" y="738" type="curve" smooth="yes"/>
      <point x="189" y="738"/>
      <point x="118" y="674"/>
      <point x="118" y="544" type="curve" smooth="yes"/>
      <point x="118" y="471"/>
      <point x="144" y="420"/>
      <point x="236" y="321" type="curve" smooth="yes"/>
    </contour>
    <contour>
      <point x="289" y="-18" type="curve" smooth="yes"/>
      <point x="490" y="-18"/>
      <point x="602" y="147"/>
      <point x="602" y="413" type="curve"/>
      <point x="516" y="413" type="line"/>
      <point x="516" y="183"/>
      <point x="429" y="64"/>
      <point x="289" y="64" type="curve" smooth="yes"/>
      <point x="198" y="64"/>
      <point x="124" y="114"/>
      <point x="124" y="208" type="curve" smooth="yes"/>
      <point x="124" y="276"/>
      <point x="164" y="336"/>
      <point x="223" y="366" type="curve"/>
      <point x="173" y="433" type="line"/>
      <point x="93" y="388"/>
      <point x="32" y="312"/>
      <point x="32" y="216" type="curve" smooth="yes"/>
      <point x="32" y="201" type="line" smooth="yes"/>
      <point x="32" y="78"/>
      <point x="135" y="-18"/>
    </contour>
    <contour>
      <point x="400" y="400" type="line"/>
      <point x="662" y="400" type="line"/>
      <point x="662" y="476" type="line"/>
      <point x="400" y="476" type="line"/>
    </contour>
  </outline>
</glyph>
<glyph name="equal" format="2">
  <advance width="590"/>
  <unicode hex="003D"/>
  <outline>
    <contour>
      <point x="66" y="381" type="line"/>
      <point x="524" y="381" type="line"/>
      <point x="524" y="457" type="line"/>
      <point x="66" y="457" type="line"/>
    </contour>
    <contour>
      <point x="66" y="203" type="line"/>
      <point x="524" y="203" type="line"/>
      <point x="524" y="279" type="line"/>
      <point x="66" y="279" type="line"/>
    </contour>
  </outline>
</glyph>
<glyph name="A" format="2">
  <advance width="756"/>
  <unicode hex="0041"/>
  <anchor x="720" y="10" name="ogonek"/>
  <anchor x="374" y="730" name="top"/>
  <outline>
    <contour>
      <point x="28" y="0" type="line"/>
      <point x="126" y="0" type="line"/>
      <point x="363" y="666" type="line"/>
      <point x="312" y="642" type="line"/>
      <point x="430" y="642" type="line"/>
      <point x="382" y="666" type="line"/>
      <point x="627" y="0" type="line"/>
      <point x="728" y="0" type="line"/>
      <point x="457" y="730" type="line"/>
      <point x="291" y="730" type="line"/>
    </contour>
    <contour>
      <point x="185" y="218" type="line"/>
      <point x="566" y="218" type="line"/>
      <point x="533" y="306" type="line"/>
      <point x="218" y="306" type="line"/>
    </contour>
  </outline>
</glyph>
<glyph name="E" format="2">
  <advance width="600"/>
  <unicode hex="0045"/>
  <anchor x="322" y="0" name="bottom"/>
  <anchor x="538" y="10" name="ogonek"/>
  <anchor x="323" y="730" name="top"/>
  <outline>
    <contour>
      <point x="106" y="0" type="line"/>
      <point x="204" y="0" type="line"/>
      <point x="204" y="730" type="line"/>
      <point x="106" y="730" type="line"/>
    </contour>
    <contour>
      <point x="184" y="0" type="line"/>
      <point x="538" y="0" type="line"/>
      <point x="538" y="88" type="line"/>
      <point x="184" y="88" type="line"/>
    </contour>
    <contour>
      <point x="184" y="327" type="line"/>
      <point x="507" y="327" type="line"/>
      <point x="507" y="415" type="line"/>
      <point x="184" y="415" type="line"/>
    </contour>
    <contour>
      <point x="184" y="642" type="line"/>
      <point x="528" y="642" type="line"/>
      <point x="528" y="730" type="line"/>
      <point x="184" y="730" type="line"/>
    </contour>
  </outline>
</glyph>
<glyph name="V" format="2">
  <advance width="708"/>
  <unicode hex="0056"/>
  <outline>
    <contour>
      <point x="275" y="0" type="line"/>
      <point x="443" y="0" type="line"/>
      <point x="678" y="730" type="line"/>
      <point x="580" y="730" type="line"/>
      <point x="371" y="64" type="line"/>
      <point x="422" y="88" type="line"/>
      <point x="302" y="88" type="line"/>
      <point x="350" y="64" type="line"/>
      <point x="123" y="730" type="line"/>
      <point x="22" y="730" type="line"/>
    </contour>
  </outline>
</glyph>
<glyph name="W" format="2">
  <advance width="1043"/>
  <unicode hex="0057"/>
  <anchor x="530" y="0" name="bottom"/>
  <anchor x="523" y="730" name="top"/>
  <outline>
    <contour>
      <point x="227" y="0" type="line"/>
      <point x="394" y="0" type="line"/>
      <point x="553" y="700" type="line"/>
      <point x="461" y="700" type="line"/>
      <point x="322" y="64" type="line"/>
      <point x="374" y="88" type="line"/>
      <point x="255" y="88" type="line"/>
      <point x="302" y="64" type="line"/>
      <point x="131" y="730" type="line"/>
      <point x="30" y="730" type="line"/>
    </contour>
    <contour>
      <point x="666" y="0" type="line"/>
      <point x="834" y="0" type="line"/>
      <point x="1013" y="730" type="line"/>
      <point x="915" y="730" type="line"/>
      <point x="762" y="64" type="line"/>
      <point x="813" y="88" type="line"/>
      <point x="693" y="88" type="line"/>
      <point x="743" y="64" type="line"/>
      <point x="586" y="700" type="line"/>
      <point x="491" y="700" type="line"/>
    </contour>
  </outline>
</glyph>
<glyph name="backslash" format="2">
  <advance width="344"/>
  <unicode hex="005C"/>
  <outline>
    <contour>
      <point x="239" y="-60" type="line"/>
      <point x="328" y="-60" type="line"/>
      <point x="105" y="780" type="line"/>
      <point x="16" y="780" type="line"/>
    </contour>
  </outline>
</glyph>
<glyph name="e" format="2">
  <advance width="612"/>
  <unicode hex="0065"/>
  <anchor x="319" y="0" name="bottom"/>
  <anchor x="488" y="42" name="ogonek"/>
  <anchor x="313" y="534" name="top"/>
  <outline>
    <contour>
      <point x="319" y="-18" type="curve" smooth="yes"/>
      <point x="445" y="-18"/>
      <point x="536" y="48"/>
      <point x="559" y="159" type="curve"/>
      <point x="469" y="159" type="line"/>
      <point x="458" y="109"/>
      <point x="403" y="66"/>
      <point x="319" y="66" type="curve" smooth="yes"/>
      <point x="198" y="66"/>
      <point x="144" y="153"/>
      <point x="144" y="267" type="curve" smooth="yes"/>
      <point x="144" y="384"/>
      <point x="198" y="468"/>
      <point x="313" y="468" type="curve" smooth="yes"/>
      <point x="422" y="468"/>
      <point x="476" y="395"/>
      <point x="476" y="282" type="curve"/>
      <point x="498" y="321" type="line"/>
      <point x="94" y="321" type="line"/>
      <point x="94" y="249" type="line"/>
      <point x="568" y="249" type="line"/>
      <point x="568" y="292" type="line" smooth="yes"/>
      <point x="568" y="425"/>
      <point x="486" y="552"/>
      <point x="313" y="552" type="curve" smooth="yes"/>
      <point x="134" y="552"/>
      <point x="52" y="414"/>
      <point x="52" y="276" type="curve" smooth="yes"/>
      <point x="52" y="258" type="line" smooth="yes"/>
      <point x="52" y="123"/>
      <point x="131" y="-18"/>
    </contour>
  </outline>
</glyph>
<glyph name="h" format="2">
  <advance width="640"/>
  <unicode hex="0068"/>
  <anchor x="324" y="0" name="bottom"/>
  <anchor x="197" y="642" name="center"/>
  <anchor x="140" y="730" name="top"/>
  <outline>
    <contour>
      <point x="92" y="0" type="line"/>
      <point x="188" y="0" type="line"/>
      <point x="188" y="308" type="line" smooth="yes"/>
      <point x="188" y="400"/>
      <point x="243" y="462"/>
      <point x="329" y="462" type="curve" smooth="yes"/>
      <point x="406" y="462"/>
      <point x="460" y="412"/>
      <point x="460" y="325" type="curve" smooth="yes"/>
      <point x="460" y="0" type="line"/>
      <point x="556" y="0" type="line"/>
      <point x="556" y="305" type="line" smooth="yes"/>
      <point x="556" y="462"/>
      <point x="490" y="550"/>
      <point x="362" y="550" type="curve" smooth="yes"/>
      <point x="358" y="550" type="line" smooth="yes"/>
      <point x="223" y="550"/>
      <point x="164" y="452"/>
      <point x="164" y="294" type="curve"/>
      <point x="188" y="294" type="line"/>
      <point x="188" y="730" type="line"/>
      <point x="92" y="730" type="line"/>
    </contour>
  </outline>
</glyph>
<glyph name="j" format="2">
  <advance width="317"/>
  <unicode hex="006A"/>
  <outline>
    <contour>
      <point x="-2" y="-204" type="line"/>
      <point x="40" y="-204" type="line" smooth="yes"/>
      <point x="174" y="-204"/>
      <point x="225" y="-159"/>
      <point x="225" y="-25" type="curve" smooth="yes"/>
      <point x="225" y="534" type="line"/>
      <point x="133" y="534" type="line"/>
      <point x="133" y="-39" type="line" smooth="yes"/>
      <point x="133" y="-89"/>
      <point x="104" y="-118"/>
      <point x="54" y="-118" type="curve" smooth="yes"/>
      <point x="-2" y="-118" type="line"/>
    </contour>
    <contour>
      <point x="49" y="458" type="line"/>
      <point x="225" y="458" type="line"/>
      <point x="225" y="534" type="line"/>
      <point x="49" y="534" type="line"/>
    </contour>
    <contour>
      <point x="156" y="628" type="curve" smooth="yes"/>
      <point x="199" y="628"/>
      <point x="219" y="653"/>
      <point x="219" y="688" type="curve" smooth="yes"/>
      <point x="219" y="723"/>
      <point x="199" y="748"/>
      <point x="156" y="748" type="curve" smooth="yes"/>
      <point x="113" y="748"/>
      <point x="93" y="723"/>
      <point x="93" y="688" type="curve" smooth="yes"/>
      <point x="93" y="653"/>
      <point x="113" y="628"/>
    </contour>
  </outline>
</glyph>
<glyph name="o" format="2">
  <advance width="676"/>
  <unicode hex="006F"/>
  <note>
o
</note>
  <anchor x="338" y="0" name="bottom"/>
  <anchor x="338" y="267" name="center"/>
  <anchor x="453" y="10" name="ogonek"/>
  <anchor x="338" y="534" name="top"/>
  <outline>
    <contour>
      <point x="338" y="-18" type="curve" smooth="yes"/>
      <point x="524" y="-18"/>
      <point x="624" y="123"/>
      <point x="624" y="258" type="curve" smooth="yes"/>
      <point x="624" y="276" type="line" smooth="yes"/>
      <point x="624" y="413"/>
      <point x="519" y="552"/>
      <point x="338" y="552" type="curve" smooth="yes"/>
      <point x="157" y="552"/>
      <point x="52" y="413"/>
      <point x="52" y="276" type="curve" smooth="yes"/>
      <point x="52" y="258" type="line" smooth="yes"/>
      <point x="52" y="123"/>
      <point x="152" y="-18"/>
    </contour>
    <contour>
      <point x="338" y="68" type="curve" smooth="yes"/>
      <point x="218" y="68"/>
      <point x="148" y="155"/>
      <point x="148" y="267" type="curve" smooth="yes"/>
      <point x="148" y="381"/>
      <point x="221" y="466"/>
      <point x="338" y="466" type="curve" smooth="yes"/>
      <point x="455" y="466"/>
      <point x="528" y="381"/>
      <point x="528" y="267" type="curve" smooth="yes"/>
      <point x="528" y="155"/>
      <point x="458" y="68"/>
    </contour>
  </outline>
</glyph>
<glyph name="p" format="2">
  <advance width="689"/>
  <unicode hex="0070"/>
  <outline>
    <contour>
      <point x="92" y="-200" type="line"/>
      <point x="188" y="-200" type="line"/>
      <point x="188" y="155" type="line"/>
      <point x="144" y="235" type="line"/>
      <point x="153" y="52"/>
      <point x="264" y="-18"/>
      <point x="378" y="-18" type="curve" smooth="yes"/>
      <point x="530" y="-18"/>
      <point x="637" y="108"/>
      <point x="637" y="258" type="curve" smooth="yes"/>
      <point x="637" y="276" type="line" smooth="yes"/>
      <point x="637" y="426"/>
      <point x="535" y="552"/>
      <point x="380" y="552" type="curve" smooth="yes"/>
      <point x="259" y="552"/>
      <point x="159" y="476"/>
      <point x="150" y="305" type="curve"/>
      <point x="168" y="303" type="line"/>
      <point x="168" y="534" type="line"/>
      <point x="92" y="534" type="line"/>
    </contour>
    <contour>
      <point x="363" y="66" type="curve" smooth="yes"/>
      <point x="268" y="66"/>
      <point x="184" y="131"/>
      <point x="184" y="241" type="curve" smooth="yes"/>
      <point x="184" y="287" type="line" smooth="yes"/>
      <point x="184" y="400"/>
      <point x="266" y="468"/>
      <point x="363" y="468" type="curve" smooth="yes"/>
      <point x="470" y="468"/>
      <point x="541" y="386"/>
      <point x="541" y="267" type="curve" smooth="yes"/>
      <point x="541" y="148"/>
      <point x="470" y="66"/>
    </contour>
  </outline>
</glyph>
<glyph name="r" format="2">
  <advance width="410"/>
  <unicode hex="0072"/>
  <note>
r / design an alternative version with a round hook. Look at lettera (based on Olivetti Candia)
</note>
  <anchor x="140" y="0" name="bottom"/>
  <anchor x="229" y="534" name="top"/>
  <outline>
    <contour>
      <point x="92" y="0" type="line"/>
      <point x="188" y="0" type="line"/>
      <point x="188" y="289" type="line" smooth="yes"/>
      <point x="188" y="395"/>
      <point x="247" y="454"/>
      <point x="354" y="454" type="curve" smooth="yes"/>
      <point x="388" y="454" type="line"/>
      <point x="388" y="540" type="line"/>
      <point x="370" y="540" type="line" smooth="yes"/>
      <point x="233" y="540"/>
      <point x="164" y="470"/>
      <point x="164" y="314" type="curve"/>
      <point x="168" y="314" type="line"/>
      <point x="168" y="534" type="line"/>
      <point x="92" y="534" type="line"/>
    </contour>
  </outline>
</glyph>
<glyph name="u" format="2">
  <advance width="628"/>
  <unicode hex="0075"/>
  <anchor x="534" y="10" name="ogonek"/>
  <anchor x="307" y="534" name="top"/>
  <outline>
    <contour>
      <point x="277" y="-16" type="curve" smooth="yes"/>
      <point x="281" y="-16" type="line" smooth="yes"/>
      <point x="408" y="-16"/>
      <point x="470" y="71"/>
      <point x="470" y="229" type="curve"/>
      <point x="458" y="229" type="line"/>
      <point x="458" y="0" type="line"/>
      <point x="534" y="0" type="line"/>
      <point x="534" y="535" type="line"/>
      <point x="438" y="535" type="line"/>
      <point x="438" y="216" type="line" smooth="yes"/>
      <point x="438" y="127"/>
      <point x="382" y="72"/>
      <point x="302" y="72" type="curve" smooth="yes"/>
      <point x="225" y="72"/>
      <point x="176" y="122"/>
      <point x="176" y="206" type="curve" smooth="yes"/>
      <point x="176" y="535" type="line"/>
      <point x="80" y="535" type="line"/>
      <point x="80" y="225" type="line" smooth="yes"/>
      <point x="80" y="69"/>
      <point x="150" y="-16"/>
    </contour>
  </outline>
</glyph>
<glyph name="v" format="2">
  <advance width="559"/>
  <unicode hex="0076"/>
  <outline>
    <contour>
      <point x="206" y="0" type="line"/>
      <point x="302" y="0" type="line"/>
      <point x="124" y="534" type="line"/>
      <point x="24" y="534" type="line"/>
    </contour>
    <contour>
      <point x="230" y="0" type="line"/>
      <point x="346" y="0" type="line"/>
      <point x="346" y="76" type="line"/>
      <point x="230" y="76" type="line"/>
    </contour>
    <contour>
      <point x="276" y="0" type="line"/>
      <point x="367" y="0" type="line"/>
      <point x="525" y="534" type="line"/>
      <point x="431" y="534" type="line"/>
    </contour>
  </outline>
</glyph>
<glyph name="w" format="2">
  <advance width="848"/>
  <unicode hex="0077"/>
  <anchor x="424" y="0" name="bottom"/>
  <anchor x="423" y="534" name="top"/>
  <outline>
    <contour>
      <point x="248" y="0" type="line"/>
      <point x="327" y="0" type="line"/>
      <point x="436" y="514" type="line"/>
      <point x="404" y="514" type="line"/>
      <point x="530" y="0" type="line"/>
      <point x="612" y="0" type="line"/>
      <point x="486" y="516" type="line"/>
      <point x="356" y="516" type="line"/>
    </contour>
    <contour>
      <point x="199" y="0" type="line"/>
      <point x="310" y="0" type="line"/>
      <point x="310" y="76" type="line"/>
      <point x="199" y="76" type="line"/>
    </contour>
    <contour>
      <point x="177" y="0" type="line"/>
      <point x="265" y="0" type="line"/>
      <point x="118" y="534" type="line"/>
      <point x="26" y="534" type="line"/>
    </contour>
    <contour>
      <point x="550" y="0" type="line"/>
      <point x="661" y="0" type="line"/>
      <point x="661" y="76" type="line"/>
      <point x="550" y="76" type="line"/>
    </contour>
    <contour>
      <point x="595" y="0" type="line"/>
      <point x="679" y="0" type="line"/>
      <point x="810" y="534" type="line"/>
      <point x="723" y="534" type="line"/>
    </contour>
  </outline>
</glyph>
<glyph name="bar" format="2">
  <advance width="374"/>
  <unicode hex="007C"/>
  <outline>
    <contour>
      <point x="144" y="-200" type="line"/>
      <point x="230" y="-200" type="line"/>
      <point x="230" y="730" type="line"/>
      <point x="144" y="730" type="line"/>
    </contour>
  </outline>
</glyph>
<glyph name="cent" format="2">
  <advance width="612"/>
  <unicode hex="00A2"/>
  <outline>
    <contour>
      <point x="320" y="104" type="curve" smooth="yes"/>
      <point x="449" y="104"/>
      <point x="558" y="174"/>
      <point x="570" y="295" type="curve"/>
      <point x="478" y="295" type="line"/>
      <point x="470" y="233"/>
      <point x="406" y="186"/>
      <point x="320" y="186" type="curve" smooth="yes"/>
      <point x="206" y="186"/>
      <point x="146" y="263"/>
      <point x="146" y="369" type="curve" smooth="yes"/>
      <point x="146" y="478"/>
      <point x="209" y="552"/>
      <point x="320" y="552" type="curve" smooth="yes"/>
      <point x="404" y="552"/>
      <point x="462" y="508"/>
      <point x="472" y="446" type="curve"/>
      <point x="564" y="446" type="line"/>
      <point x="548" y="569"/>
      <point x="449" y="634"/>
      <point x="320" y="634" type="curve" smooth="yes"/>
      <point x="139" y="634"/>
      <point x="52" y="506"/>
      <point x="52" y="379" type="curve" smooth="yes"/>
      <point x="52" y="359" type="line" smooth="yes"/>
      <point x="52" y="235"/>
      <point x="136" y="104"/>
    </contour>
    <contour>
      <point x="277" y="0" type="line"/>
      <point x="363" y="0" type="line"/>
      <point x="363" y="146" type="line"/>
      <point x="277" y="146" type="line"/>
    </contour>
    <contour>
      <point x="277" y="584" type="line"/>
      <point x="363" y="584" type="line"/>
      <point x="363" y="730" type="line"/>
      <point x="277" y="730" type="line"/>
    </contour>
  </outline>
</glyph>
<glyph name="degree" format="2">
  <advance width="370"/>
  <unicode hex="00B0"/>
  <outline>
    <contour>
      <point x="185" y="423" type="curve" smooth="yes"/>
      <point x="278" y="423"/>
      <point x="342" y="493"/>
      <point x="342" y="577" type="curve" smooth="yes"/>
      <point x="342" y="660"/>
      <point x="278" y="730"/>
      <point x="185" y="730" type="curve" smooth="yes"/>
      <point x="92" y="730"/>
      <point x="28" y="660"/>
      <point x="28" y="577" type="curve" smooth="yes"/>
      <point x="28" y="493"/>
      <point x="92" y="423"/>
    </contour>
    <contour>
      <point x="185" y="487" type="curve" smooth="yes"/>
      <point x="130" y="487"/>
      <point x="98" y="529"/>
      <point x="98" y="577" type="curve" smooth="yes"/>
      <point x="98" y="624"/>
      <point x="130" y="666"/>
      <point x="185" y="666" type="curve" smooth="yes"/>
      <point x="240" y="666"/>
      <point x="272" y="624"/>
      <point x="272" y="577" type="curve" smooth="yes"/>
      <point x="272" y="529"/>
      <point x="240" y="487"/>
    </contour>
  </outline>
</glyph>
<glyph name="divide" format="2">
  <advance width="590"/>
  <unicode hex="00F7"/>
  <outline>
    <contour>
      <point x="66" y="306" type="line"/>
      <point x="524" y="306" type="line"/>
      <point x="524" y="382" type="line"/>
      <point x="66" y="382" type="line"/>
    </contour>
    <contour>
      <point x="243" y="88" type="line"/>
      <point x="347" y="88" type="line"/>
      <point x="347" y="200" type="line"/>
      <point x="243" y="200" type="line"/>
    </contour>
    <contour>
      <point x="243" y="488" type="line"/>
      <point x="347" y="488" type="line"/>
      <point x="347" y="600" type="line"/>
      <point x="243" y="600" type="line"/>
    </contour>
  </outline>
</glyph>
<glyph name="OE" format="2">
  <advance width="1057"/>
  <unicode hex="0152"/>
  <outline>
    <contour>
      <point x="440" y="-20" type="curve" smooth="yes"/>
      <point x="494" y="-20"/>
      <point x="543" y="-12"/>
      <point x="575" y="0" type="curve"/>
      <point x="661" y="0" type="line"/>
      <point x="661" y="730" type="line"/>
      <point x="575" y="730" type="line"/>
      <point x="543" y="742"/>
      <point x="494" y="750"/>
      <point x="440" y="750" type="curve" smooth="yes"/>
      <point x="176" y="750"/>
      <point x="56" y="554"/>
      <point x="56" y="377" type="curve" smooth="yes"/>
      <point x="56" y="355" type="line" smooth="yes"/>
      <point x="56" y="195"/>
      <point x="168" y="-20"/>
    </contour>
    <contour>
      <point x="440" y="68" type="curve" smooth="yes"/>
      <point x="264" y="68"/>
      <point x="158" y="209"/>
      <point x="158" y="365" type="curve" smooth="yes"/>
      <point x="158" y="528"/>
      <point x="264" y="662"/>
      <point x="440" y="662" type="curve" smooth="yes"/>
      <point x="492" y="662"/>
      <point x="555" y="652"/>
      <point x="596" y="630" type="curve"/>
      <point x="563" y="667" type="line"/>
      <point x="563" y="61" type="line"/>
      <point x="596" y="100" type="line"/>
      <point x="555" y="78"/>
      <point x="491" y="68"/>
    </contour>
    <contour>
      <point x="641" y="0" type="line"/>
      <point x="995" y="0" type="line"/>
      <point x="995" y="88" type="line"/>
      <point x="641" y="88" type="line"/>
    </contour>
    <contour>
      <point x="641" y="327" type="line"/>
      <point x="965" y="327" type="line"/>
      <point x="965" y="415" type="line"/>
      <point x="641" y="415" type="line"/>
    </contour>
    <contour>
      <point x="641" y="642" type="line"/>
      <point x="985" y="642" type="line"/>
      <point x="985" y="730" type="line"/>
      <point x="641" y="730" type="line"/>
    </contour>
  </outline>
</glyph>
<glyph name="ringcomb" format="2">
  <unicode hex="030A"/>
  <anchor x="112" y="534" name="_top"/>
  <anchor x="112" y="810" name="top"/>
  <outline>
    <contour>
      <point x="112" y="602" type="curve" smooth="yes"/>
      <point x="179" y="602"/>
      <point x="224" y="650"/>
      <point x="224" y="714" type="curve" smooth="yes"/>
      <point x="224" y="778"/>
      <point x="179" y="826"/>
      <point x="112" y="826" type="curve" smooth="yes"/>
      <point x="45" y="826"/>
      <point x="0" y="778"/>
      <point x="0" y="714" type="curve" smooth="yes"/>
      <point x="0" y="650"/>
      <point x="45" y="602"/>
    </contour>
    <contour>
      <point x="112" y="654" type="curve" smooth="yes"/>
      <point x="77" y="654"/>
      <point x="54" y="679"/>
      <point x="54" y="714" type="curve" smooth="yes"/>
      <point x="54" y="749"/>
      <point x="77" y="774"/>
      <point x="112" y="774" type="curve" smooth="yes"/>
      <point x="147" y="774"/>
      <point x="170" y="749"/>
      <point x="170" y="714" type="curve" smooth="yes"/>
      <point x="170" y="679"/>
      <point x="147" y="654"/>
    </contour>
  </outline>
</glyph>
<glyph name="caroncomb" format="2">
  <unicode hex="030C"/>
  <anchor x="163" y="534" name="_top"/>
  <anchor x="158" y="810" name="top"/>
  <outline>
    <contour>
      <point x="110" y="612" type="line"/>
      <point x="216" y="612" type="line"/>
      <point x="313" y="810" type="line"/>
      <point x="238" y="810" type="line"/>
      <point x="169" y="660" type="line"/>
      <point x="161" y="660" type="line"/>
      <point x="79" y="810" type="line"/>
      <point x="0" y="810" type="line"/>
    </contour>
  </outline>
</glyph>
<glyph name="ogonekcomb" format="2">
  <unicode hex="0328"/>
  <anchor x="226" y="10" name="_ogonek"/>
  <outline>
    <contour>
      <point x="178" y="-242" type="curve" smooth="yes"/>
      <point x="200" y="-242"/>
      <point x="221" y="-238"/>
      <point x="236" y="-233" type="curve"/>
      <point x="236" y="-165" type="line"/>
      <point x="219" y="-171"/>
      <point x="199" y="-174"/>
      <point x="182" y="-174" type="curve" smooth="yes"/>
      <point x="149" y="-174"/>
      <point x="130" y="-157"/>
      <point x="130" y="-125" type="curve" smooth="yes"/>
      <point x="130" y="-92"/>
      <point x="150" y="-62"/>
      <point x="198" y="-23" type="curve" smooth="yes"/>
      <point x="226" y="0" type="line"/>
      <point x="195" y="40" type="line"/>
      <point x="166" y="17" type="line" smooth="yes"/>
      <point x="102" y="-33"/>
      <point x="62" y="-74"/>
      <point x="62" y="-135" type="curve" smooth="yes"/>
      <point x="62" y="-204"/>
      <point x="108" y="-242"/>
    </contour>
  </outline>
</glyph>
<glyph name="P.salt" format="2">
  <advance width="652"/>
  <outline>
    <contour>
      <point x="184" y="316" type="line"/>
      <point x="386" y="316" type="line" smooth="yes"/>
      <point x="547" y="316"/>
      <point x="630" y="391"/>
      <point x="630" y="517" type="curve" smooth="yes"/>
      <point x="630" y="533" type="line" smooth="yes"/>
      <point x="630" y="659"/>
      <point x="546" y="734"/>
      <point x="386" y="734" type="curve" smooth="yes"/>
      <point x="184" y="734" type="line"/>
      <point x="184" y="648" type="line"/>
      <point x="404" y="648" type="line" smooth="yes"/>
      <point x="487" y="648"/>
      <point x="530" y="600"/>
      <point x="530" y="525" type="curve" smooth="yes"/>
      <point x="530" y="450"/>
      <point x="489" y="402"/>
      <point x="404" y="402" type="curve" smooth="yes"/>
      <point x="184" y="402" type="line"/>
    </contour>
    <contour>
      <point x="106" y="0" type="line"/>
      <point x="204" y="0" type="line"/>
      <point x="204" y="734" type="line"/>
      <point x="106" y="734" type="line"/>
    </contour>
  </outline>
</glyph>
<glyph name="R.salt" format="2">
  <advance width="710"/>
  <anchor x="376" y="0" name="bottom"/>
  <anchor x="339" y="730" name="top"/>
  <outline>
    <contour>
      <point x="106" y="0" type="line"/>
      <point x="204" y="0" type="line"/>
      <point x="204" y="734" type="line"/>
      <point x="106" y="734" type="line"/>
    </contour>
    <contour>
      <point x="551" y="0" type="line"/>
      <point x="660" y="0" type="line"/>
      <point x="507" y="337" type="line"/>
      <point x="402" y="337" type="line"/>
    </contour>
    <contour>
      <point x="184" y="313" type="line"/>
      <point x="391" y="313" type="line" smooth="yes"/>
      <point x="553" y="313"/>
      <point x="634" y="390"/>
      <point x="634" y="516" type="curve" smooth="yes"/>
      <point x="634" y="532" type="line" smooth="yes"/>
      <point x="634" y="658"/>
      <point x="552" y="734"/>
      <point x="391" y="734" type="curve" smooth="yes"/>
      <point x="184" y="734" type="line"/>
      <point x="184" y="648" type="line"/>
      <point x="410" y="648" type="line" smooth="yes"/>
      <point x="493" y="648"/>
      <point x="534" y="600"/>
      <point x="534" y="524" type="curve" smooth="yes"/>
      <point x="534" y="448"/>
      <point x="495" y="400"/>
      <point x="410" y="400" type="curve" smooth="yes"/>
      <point x="184" y="400" type="line"/>
    </contour>
  </outline>
</glyph>
<glyph name="asterisk.part" format="2">
  <advance width="198"/>
  <guideline x="0" y="470" angle="90"/>
  <guideline x="0" y="470" angle="45"/>
  <guideline x="0" y="470" angle="135"/>
  <outline>
    <contour>
      <point x="153" y="314" type="line"/>
      <point x="198" y="392" type="line"/>
      <point x="67" y="449" type="line"/>
      <point x="67" y="491" type="line"/>
      <point x="198" y="548" type="line"/>
      <point x="153" y="626" type="line"/>
      <point x="0" y="518" type="line"/>
      <point x="0" y="422" type="line"/>
    </contour>
  </outline>
</glyph>
<glyph name="f_f_i" format="2">
  <advance width="1006"/>
  <outline>
    <contour>
      <point x="106" y="0" type="line"/>
      <point x="198" y="0" type="line"/>
      <point x="198" y="589" type="line" smooth="yes"/>
      <point x="198" y="637"/>
      <point x="225" y="666"/>
      <point x="275" y="666" type="curve" smooth="yes"/>
      <point x="345" y="666" type="line"/>
      <point x="345" y="746" type="line"/>
      <point x="291" y="746" type="line" smooth="yes"/>
      <point x="170" y="746"/>
      <point x="106" y="692"/>
      <point x="106" y="573" type="curve" smooth="yes"/>
    </contour>
    <contour>
      <point x="449" y="0" type="line"/>
      <point x="541" y="0" type="line"/>
      <point x="541" y="583" type="line" smooth="yes"/>
      <point x="541" y="631"/>
      <point x="568" y="660"/>
      <point x="618" y="660" type="curve" smooth="yes"/>
      <point x="694" y="660" type="line"/>
      <point x="694" y="740" type="line"/>
      <point x="634" y="740" type="line" smooth="yes"/>
      <point x="513" y="740"/>
      <point x="449" y="686"/>
      <point x="449" y="567" type="curve" smooth="yes"/>
    </contour>
    <contour>
      <point x="816" y="0" type="line"/>
      <point x="912" y="0" type="line"/>
      <point x="912" y="534" type="line"/>
      <point x="816" y="534" type="line"/>
    </contour>
    <contour>
      <point x="32" y="462" type="line"/>
      <point x="684" y="462" type="line"/>
      <point x="684" y="534" type="line"/>
      <point x="32" y="534" type="line"/>
    </contour>
    <contour>
      <point x="738" y="458" type="line"/>
      <point x="912" y="458" type="line"/>
      <point x="912" y="534" type="line"/>
      <point x="738" y="534" type="line"/>
    </contour>
    <contour>
      <point x="843" y="620" type="curve" smooth="yes"/>
      <point x="886" y="620"/>
      <point x="906" y="645"/>
      <point x="906" y="680" type="curve" smooth="yes"/>
      <point x="906" y="715"/>
      <point x="886" y="740"/>
      <point x="843" y="740" type="curve" smooth="yes"/>
      <point x="800" y="740"/>
      <point x="780" y="715"/>
      <point x="780" y="680" type="curve" smooth="yes"/>
      <point x="780" y="645"/>
      <point x="800" y="620"/>
    </contour>
  </outline>
</glyph>
<glyph name="f_f_i.salt" format="2">
  <advance width="1014"/>
  <outline>
    <contour>
      <point x="106" y="0" type="line"/>
      <point x="198" y="0" type="line"/>
      <point x="198" y="613" type="line" smooth="yes"/>
      <point x="198" y="643"/>
      <point x="215" y="666"/>
      <point x="246" y="666" type="curve" smooth="yes"/>
      <point x="277" y="666"/>
      <point x="296" y="643"/>
      <point x="296" y="613" type="curve"/>
      <point x="372" y="613" type="line"/>
      <point x="372" y="689"/>
      <point x="329" y="740"/>
      <point x="244" y="740" type="curve" smooth="yes"/>
      <point x="159" y="740"/>
      <point x="106" y="689"/>
      <point x="106" y="613" type="curve" smooth="yes"/>
    </contour>
    <contour>
      <point x="457" y="0" type="line"/>
      <point x="549" y="0" type="line"/>
      <point x="549" y="619" type="line" smooth="yes"/>
      <point x="549" y="650"/>
      <point x="568" y="672"/>
      <point x="601" y="672" type="curve" smooth="yes"/>
      <point x="634" y="672"/>
      <point x="655" y="650"/>
      <point x="655" y="619" type="curve"/>
      <point x="731" y="619" type="line"/>
      <point x="731" y="696"/>
      <point x="687" y="746"/>
      <point x="599" y="746" type="curve" smooth="yes"/>
      <point x="511" y="746"/>
      <point x="457" y="696"/>
      <point x="457" y="619" type="curve" smooth="yes"/>
    </contour>
    <contour>
      <point x="824" y="0" type="line"/>
      <point x="920" y="0" type="line"/>
      <point x="920" y="534" type="line"/>
      <point x="824" y="534" type="line"/>
    </contour>
    <contour>
      <point x="32" y="462" type="line"/>
      <point x="688" y="462" type="line"/>
      <point x="688" y="534" type="line"/>
      <point x="32" y="534" type="line"/>
    </contour>
    <contour>
      <point x="742" y="458" type="line"/>
      <point x="920" y="458" type="line"/>
      <point x="920" y="534" type="line"/>
      <point x="742" y="534" type="line"/>
    </contour>
    <contour>
      <point x="853" y="620" type="curve" smooth="yes"/>
      <point x="896" y="620"/>
      <point x="916" y="645"/>
      <point x="916" y="680" type="curve" smooth="yes"/>
      <point x="916" y="715"/>
      <point x="896" y="740"/>
      <point x="853" y="740" type="curve" smooth="yes"/>
      <point x="810" y="740"/>
      <point x="790" y="715"/>
      <point x="790" y="680" type="curve" smooth="yes"/>
      <point x="790" y="645"/>
      <point x="810" y="620"/>
    </contour>
  </outline>
</glyph>
<glyph name="f_f_j.salt" format="2">
  <advance width="1015"/>
  <outline>
    <contour>
      <point x="106" y="0" type="line"/>
      <point x="198" y="0" type="line"/>
      <point x="198" y="617" type="line" smooth="yes"/>
      <point x="198" y="645"/>
      <point x="216" y="666"/>
      <point x="246" y="666" type="curve" smooth="yes"/>
      <point x="276" y="666"/>
      <point x="296" y="645"/>
      <point x="296" y="617" type="curve"/>
      <point x="372" y="617" type="line"/>
      <point x="372" y="693"/>
      <point x="329" y="740"/>
      <point x="244" y="740" type="curve" smooth="yes"/>
      <point x="159" y="740"/>
      <point x="106" y="693"/>
      <point x="106" y="617" type="curve" smooth="yes"/>
    </contour>
    <contour>
      <point x="457" y="0" type="line"/>
      <point x="549" y="0" type="line"/>
      <point x="549" y="619" type="line" smooth="yes"/>
      <point x="549" y="649"/>
      <point x="567" y="672"/>
      <point x="600" y="672" type="curve" smooth="yes"/>
      <point x="633" y="672"/>
      <point x="653" y="649"/>
      <point x="653" y="619" type="curve"/>
      <point x="729" y="619" type="line"/>
      <point x="729" y="695"/>
      <point x="685" y="746"/>
      <point x="598" y="746" type="curve" smooth="yes"/>
      <point x="511" y="746"/>
      <point x="457" y="695"/>
      <point x="457" y="619" type="curve" smooth="yes"/>
    </contour>
    <contour>
      <point x="694" y="-200" type="line"/>
      <point x="738" y="-200" type="line" smooth="yes"/>
      <point x="872" y="-200"/>
      <point x="923" y="-155"/>
      <point x="923" y="-21" type="curve" smooth="yes"/>
      <point x="923" y="534" type="line"/>
      <point x="831" y="534" type="line"/>
      <point x="831" y="-35" type="line" smooth="yes"/>
      <point x="831" y="-85"/>
      <point x="802" y="-114"/>
      <point x="752" y="-114" type="curve" smooth="yes"/>
      <point x="694" y="-114" type="line"/>
    </contour>
    <contour>
      <point x="32" y="462" type="line"/>
      <point x="699" y="462" type="line"/>
      <point x="699" y="534" type="line"/>
      <point x="32" y="534" type="line"/>
    </contour>
    <contour>
      <point x="753" y="458" type="line"/>
      <point x="923" y="458" type="line"/>
      <point x="923" y="534" type="line"/>
      <point x="753" y="534" type="line"/>
    </contour>
    <contour>
      <point x="854" y="628" type="curve" smooth="yes"/>
      <point x="897" y="628"/>
      <point x="917" y="653"/>
      <point x="917" y="688" type="curve" smooth="yes"/>
      <point x="917" y="723"/>
      <point x="897" y="748"/>
      <point x="854" y="748" type="curve" smooth="yes"/>
      <point x="811" y="748"/>
      <point x="791" y="723"/>
      <point x="791" y="688" type="curve" smooth="yes"/>
      <point x="791" y="653"/>
      <point x="811" y="628"/>
    </contour>
  </outline>
</glyph>
<glyph name="f_f_l" format="2">
  <advance width="1000"/>
  <outline>
    <contour>
      <point x="106" y="0" type="line"/>
      <point x="198" y="0" type="line"/>
      <point x="198" y="583" type="line" smooth="yes"/>
      <point x="198" y="631"/>
      <point x="225" y="660"/>
      <point x="275" y="660" type="curve" smooth="yes"/>
      <point x="345" y="660" type="line"/>
      <point x="345" y="740" type="line"/>
      <point x="291" y="740" type="line" smooth="yes"/>
      <point x="170" y="740"/>
      <point x="106" y="686"/>
      <point x="106" y="567" type="curve" smooth="yes"/>
    </contour>
    <contour>
      <point x="449" y="0" type="line"/>
      <point x="541" y="0" type="line"/>
      <point x="541" y="573" type="line" smooth="yes"/>
      <point x="541" y="621"/>
      <point x="568" y="650"/>
      <point x="618" y="650" type="curve" smooth="yes"/>
      <point x="682" y="650" type="line"/>
      <point x="682" y="730" type="line"/>
      <point x="634" y="730" type="line" smooth="yes"/>
      <point x="513" y="730"/>
      <point x="449" y="676"/>
      <point x="449" y="557" type="curve" smooth="yes"/>
    </contour>
    <contour>
      <point x="812" y="0" type="line"/>
      <point x="908" y="0" type="line"/>
      <point x="908" y="730" type="line"/>
      <point x="812" y="730" type="line"/>
    </contour>
    <contour>
      <point x="32" y="456" type="line"/>
      <point x="686" y="456" type="line"/>
      <point x="686" y="528" type="line"/>
      <point x="32" y="528" type="line"/>
    </contour>
    <contour>
      <point x="740" y="654" type="line"/>
      <point x="908" y="654" type="line"/>
      <point x="908" y="730" type="line"/>
      <point x="740" y="730" type="line"/>
    </contour>
  </outline>
</glyph>
<glyph name="macroncomb.case" format="2">
  <anchor x="166" y="730" name="_top"/>
  <anchor x="166" y="946" name="top"/>
  <outline>
    <contour>
      <point x="0" y="834" type="line"/>
      <point x="332" y="834" type="line"/>
      <point x="332" y="903" type="line"/>
      <point x="0" y="903" type="line"/>
    </contour>
  </outline>
</glyph>
<glyph name="one.tnum" format="2">
  <advance width="650"/>
  <outline>
    <contour>
      <point x="298" y="0" type="line"/>
      <point x="394" y="0" type="line"/>
      <point x="394" y="730" type="line"/>
      <point x="132" y="730" type="line"/>
      <point x="132" y="648" type="line"/>
      <point x="342" y="648" type="line"/>
      <point x="298" y="682" type="line"/>
    </contour>
    <contour>
      <point x="124" y="0" type="line"/>
      <point x="556" y="0" type="line"/>
      <point x="556" y="82" type="line"/>
      <point x="124" y="82" type="line"/>
    </contour>
  </outline>
</glyph>
<glyph name="plus.tnum" format="2">
  <advance width="650"/>
  <outline>
    <contour>
      <point x="284" y="86" type="line"/>
      <point x="366" y="86" type="line"/>
      <point x="366" y="602" type="line"/>
      <point x="284" y="602" type="line"/>
    </contour>
    <contour>
      <point x="86" y="306" type="line"/>
      <point x="564" y="306" type="line"/>
      <point x="564" y="382" type="line"/>
      <point x="86" y="382" type="line"/>
    </contour>
  </outline>
</glyph>
<glyph name="r.salt" format="2">
  <advance width="428"/>
  <note>
r / design an alternative version with a round hook. Look at lettera (based on Olivetti Candia)
</note>
  <anchor x="140" y="0" name="bottom"/>
  <anchor x="251" y="534" name="top"/>
  <outline>
    <contour>
      <point x="92" y="0" type="line"/>
      <point x="188" y="0" type="line"/>
      <point x="188" y="350" type="line" smooth="yes"/>
      <point x="188" y="419"/>
      <point x="223" y="454"/>
      <point x="292" y="454" type="curve" smooth="yes"/>
      <point x="412" y="454" type="line"/>
      <point x="412" y="540" type="line"/>
      <point x="318" y="540" type="line" smooth="yes"/>
      <point x="217" y="540"/>
      <point x="164" y="483"/>
      <point x="164" y="366" type="curve"/>
      <point x="166" y="366" type="line"/>
      <point x="166" y="534" type="line"/>
      <point x="92" y="534" type="line"/>
    </contour>
  </outline>
</glyph>
<glyph name="t.salt" format="2">
  <advance width="464"/>
  <anchor x="262" y="0" name="bottom"/>
  <anchor x="200" y="290" name="center"/>
  <anchor x="232" y="534" name="top"/>
  <anchor x="212" y="576" name="topright"/>
  <outline>
    <contour>
      <point x="270" y="-14" type="curve" smooth="yes"/>
      <point x="368" y="-14"/>
      <point x="432" y="50"/>
      <point x="432" y="149" type="curve"/>
      <point x="354" y="149" type="line"/>
      <point x="354" y="90"/>
      <point x="319" y="64"/>
      <point x="276" y="64" type="curve" smooth="yes"/>
      <point x="233" y="64"/>
      <point x="200" y="90"/>
      <point x="200" y="149" type="curve" smooth="yes"/>
      <point x="200" y="494" type="line"/>
      <point x="108" y="494" type="line"/>
      <point x="108" y="153" type="line" smooth="yes"/>
      <point x="108" y="46"/>
      <point x="174" y="-14"/>
    </contour>
    <contour>
      <point x="16" y="462" type="line"/>
      <point x="406" y="462" type="line"/>
      <point x="406" y="534" type="line"/>
      <point x="16" y="534" type="line"/>
    </contour>
    <contour>
      <point x="108" y="502" type="line"/>
      <point x="200" y="502" type="line"/>
      <point x="200" y="696" type="line"/>
      <point x="108" y="696" type="line"/>
    </contour>
  </outline>
</glyph>
<glyph name="three.tnum" format="2">
  <advance width="650"/>
  <outline>
    <contour>
      <point x="322" y="-18" type="curve" smooth="yes"/>
      <point x="487" y="-18"/>
      <point x="580" y="91"/>
      <point x="580" y="207" type="curve" smooth="yes"/>
      <point x="580" y="221" type="line" smooth="yes"/>
      <point x="580" y="339"/>
      <point x="485" y="440"/>
      <point x="321" y="440" type="curve" smooth="yes"/>
      <point x="293" y="440"/>
      <point x="253" y="432"/>
      <point x="234" y="423" type="curve"/>
      <point x="306" y="424" type="line"/>
      <point x="542" y="597" type="line"/>
      <point x="542" y="730" type="line"/>
      <point x="93" y="730" type="line"/>
      <point x="93" y="648" type="line"/>
      <point x="451" y="648" type="line"/>
      <point x="461" y="630" type="line"/>
      <point x="179" y="421" type="line"/>
      <point x="231" y="341" type="line"/>
      <point x="255" y="357"/>
      <point x="287" y="366"/>
      <point x="323" y="366" type="curve" smooth="yes"/>
      <point x="420" y="366"/>
      <point x="486" y="304"/>
      <point x="486" y="214" type="curve" smooth="yes"/>
      <point x="486" y="123"/>
      <point x="421" y="66"/>
      <point x="322" y="66" type="curve" smooth="yes"/>
      <point x="222" y="66"/>
      <point x="158" y="123"/>
      <point x="158" y="214" type="curve"/>
      <point x="64" y="214" type="line"/>
      <point x="64" y="89"/>
      <point x="157" y="-18"/>
    </contour>
  </outline>
</glyph>
<glyph name="two.tnum" format="2">
  <advance width="650"/>
  <outline>
    <contour>
      <point x="93" y="0" type="line"/>
      <point x="587" y="0" type="line"/>
      <point x="587" y="82" type="line"/>
      <point x="163" y="82" type="line"/>
      <point x="189" y="36" type="line"/>
      <point x="189" y="128" type="line" smooth="yes"/>
      <point x="189" y="175"/>
      <point x="207" y="196"/>
      <point x="271" y="226" type="curve" smooth="yes"/>
      <point x="406" y="289" type="line" smooth="yes"/>
      <point x="515" y="340"/>
      <point x="578" y="408"/>
      <point x="578" y="513" type="curve" smooth="yes"/>
      <point x="578" y="527" type="line" smooth="yes"/>
      <point x="578" y="643"/>
      <point x="498" y="750"/>
      <point x="331" y="750" type="curve" smooth="yes"/>
      <point x="163" y="750"/>
      <point x="85" y="644"/>
      <point x="85" y="518" type="curve"/>
      <point x="179" y="518" type="line"/>
      <point x="179" y="611"/>
      <point x="236" y="666"/>
      <point x="331" y="666" type="curve" smooth="yes"/>
      <point x="427" y="666"/>
      <point x="484" y="611"/>
      <point x="484" y="520" type="curve" smooth="yes"/>
      <point x="484" y="444"/>
      <point x="444" y="398"/>
      <point x="372" y="364" type="curve" smooth="yes"/>
      <point x="237" y="301" type="line" smooth="yes"/>
      <point x="129" y="251"/>
      <point x="93" y="208"/>
      <point x="93" y="120" type="curve" smooth="yes"/>
    </contour>
  </outline>
</glyph>
<glyph name="zero.tnum" format="2">
  <advance width="650"/>
  <outline>
    <contour>
      <point x="325" y="-20" type="curve" smooth="yes"/>
      <point x="511" y="-20"/>
      <point x="588" y="128"/>
      <point x="588" y="341" type="curve" smooth="yes"/>
      <point x="588" y="387" type="line" smooth="yes"/>
      <point x="588" y="609"/>
      <point x="502" y="750"/>
      <point x="325" y="750" type="curve" smooth="yes"/>
      <point x="148" y="750"/>
      <point x="62" y="609"/>
      <point x="62" y="387" type="curve" smooth="yes"/>
      <point x="62" y="341" type="line" smooth="yes"/>
      <point x="62" y="128"/>
      <point x="139" y="-20"/>
    </contour>
    <contour>
      <point x="325" y="66" type="curve" smooth="yes"/>
      <point x="209" y="66"/>
      <point x="160" y="158"/>
      <point x="160" y="365" type="curve" smooth="yes"/>
      <point x="160" y="577"/>
      <point x="211" y="664"/>
      <point x="325" y="664" type="curve" smooth="yes"/>
      <point x="439" y="664"/>
      <point x="490" y="577"/>
      <point x="490" y="363" type="curve" smooth="yes"/>
      <point x="490" y="158"/>
      <point x="441" y="66"/>
    </contour>
  </outline>
</glyph>
